<svg xmlns="http://www.w3.org/2000/svg" viewBox="0 0 335.04 234.77"><defs><style>.cls-1{fill:#fff;}.cls-2{fill:#333;}</style></defs><g id="Layer_2" data-name="Layer 2"><g id="Layer_1-2" data-name="Layer 1"><path class="cls-1" d="M232.6,50.31l-34.81-2.5s-40.07-1.9-47.07,14.64-8.5,31.3-16.5,38.3-51.75,29.5-59.75,38.5-29.33,62.46-15.33,76.19,22.33,16.55,33,16.22,28.5-2.83,35.67-5.66,32.67-20.13,40.67-20.9,49.69-2.6,57.59.9,18.12,6.36,20.14,3.51,5.49-25.83,7.93-26.35S268.64,179.5,273,177s11.67-11.06,6-17.7-13.16-10.8-18.83-12.14S246.42,145,244.49,143s-15.27-12-20.68-13.5-21.25-6.5-21.59-3.84,11.5,23.21,15.75,27S215.6,162,209.79,163s-8.5,2.71-15-.35-19.63-7.37-19.32-11.12,6.19-22,9-24.69,5.66-6.13,5-8.25S183,102,182.6,96s-1.79-14.3-1.29-15.46S201.47,67,211.72,65.81s15.82-6.67,18.07-9.77A16.92,16.92,0,0,0,232.6,50.31Z"/><path class="cls-2" d="M240.67,46.9l-4.82,5.36L222.57,65.45l-.42.42-.32.13a5.18,5.18,0,0,1-.79.29l-.52.14-.9.23c-.61.14-1.18.25-1.76.37l-3.41.72c-2.24.51-4.49,1-6.69,1.59s-4.41,1.23-6.58,1.94-4.27,1.53-6.35,2.43a54,54,0,0,0-6,3.1,41.92,41.92,0,0,0-5.44,3.92c-.45.39-.89.8-1.32,1.21-.58.57-1.15,1.16-1.68,1.77a23.2,23.2,0,0,0-1.59,2,25.23,25.23,0,0,0-1.87,2.9c-.55,1-1,2.06-1.5,3.16a21.26,21.26,0,0,1,1.84-6.95,25.35,25.35,0,0,1,3.61-5.69l.4-.47c.26-.29.53-.59.8-.87a40.29,40.29,0,0,1,10.87-8,58.75,58.75,0,0,1,6.64-3c2.25-.88,4.56-1.61,6.87-2.26s4.66-1.21,7-1.66l3.5-.64,1.71-.29.82-.13,0,0,7.7-9.5q-2.06-.34-4.11-.6c-3.32-.46-6.65-.84-10-1.09-1.67-.12-3.35-.22-5-.27-1.13,0-2.28-.07-3.43-.07H203c-.84,0-1.68.06-2.53.08s-1.68.08-2.52.17-1.69.14-2.52.27l-2.51.4,2.42-.8c.81-.28,1.64-.46,2.47-.7s1.66-.41,2.5-.58c.46-.1.91-.2,1.36-.28s.78-.16,1.17-.23c1.38-.24,2.78-.47,4.19-.65h0l.88-.13c1.7-.22,3.41-.4,5.12-.56,3.42-.3,6.85-.48,10.3-.58,1.71-.06,3.44-.08,5.16-.08s3.44,0,5.22.06Z"/><path class="cls-2" d="M207.16,47.91l-.08.08h0l-2.43,2.31h-1.57l-1.36-1.44-6-6.35c-.53-.16-1.1-.35-1.65-.55s-1.22-.45-1.84-.68c-1.22-.48-2.44-1-3.66-1.5L185,38.22c-1.22-.53-2.45-1-3.69-1.46l-1.87-.68-1.9-.62c-.63-.22-1.27-.4-1.91-.59s-1.3-.38-1.94-.53c-1.3-.34-2.62-.66-4-.91-.65-.13-1.33-.28-2-.36l-2.06-.33c.68-.15,1.37-.31,2.05-.43a16.16,16.16,0,0,1,2.07-.31c.6-.05,1.2-.15,1.8-.18h.31l2.11-.06a6.36,6.36,0,0,1,1.07,0l1,0c.71,0,1.42.06,2.11.14l2.11.22,2.11.32c.7.1,1.38.27,2.08.42s1.38.3,2.06.47,1.39.33,2.06.55,1.34.41,2,.64l2,.77c.64.3,1.3.57,1.93.9s1.25.65,1.86,1a19.08,19.08,0,0,1,1.8,1.26l.31.15.25.29Z"/><path class="cls-2" d="M281.63,175.05a16.14,16.14,0,0,1-5.26,4.76,31.58,31.58,0,0,1-6,2.62c-2,.67-4.05,1.14-6,1.59a50.69,50.69,0,0,0-5.4,1.39l-.5.21a.46.46,0,0,0-.17.09l-.07,0,0,0-.5.38a.49.49,0,0,0-.17.17.4.4,0,0,1-.1.12,6.58,6.58,0,0,0-.54.74c-.17.33-.36.66-.53,1a20.56,20.56,0,0,0-1.38,4.93,68.67,68.67,0,0,0-.76,10.42v1.26l0,.5,0,0a6.65,6.65,0,0,0,1,.34,11.51,11.51,0,0,1,2.52.9,5.67,5.67,0,0,1,.72.45,4.39,4.39,0,0,1,.64.65,3,3,0,0,1,.69,1.73l0,.43v.24l0,.07,0,.14a2.73,2.73,0,0,1-.15.6v0a7.71,7.71,0,0,1-.33.84l-.38.57A6.55,6.55,0,0,1,257,214a10.85,10.85,0,0,1-4,1.33,17.28,17.28,0,0,1-6.52-.53,25.64,25.64,0,0,1-3.85-1.45c-.83-.43-1.29-.64-1.29-.64s.48.15,1.38.4a24.19,24.19,0,0,0,3.93.84,17.3,17.3,0,0,0,6-.31,8.31,8.31,0,0,0,3.14-1.48A4.19,4.19,0,0,0,256.9,211l.19-.33a.07.07,0,0,1,0-.07.34.34,0,0,1,0-.14c.05,0,.05-.31.07-.45v-.1l0-.12c-.09-.31-.16-.38-.66-.62a11.22,11.22,0,0,0-2-.45,11.43,11.43,0,0,1-1.38-.36,5.35,5.35,0,0,1-.88-.4c-.16-.12-.33-.24-.5-.38a3.68,3.68,0,0,1-.57-.81c-.19-.43-.12-.38-.19-.52l0-.15-.05-.33,0,0v-.07l-.05-.64c-.05-.43-.1-.86-.12-1.31a60,60,0,0,1,0-11.14A25.93,25.93,0,0,1,252,186.4a11.2,11.2,0,0,1,1.86-3.23l.38-.43a2,2,0,0,1,.36-.36l.54-.47.05,0,.22-.16.11-.07.22-.15a3.87,3.87,0,0,1,.48-.26,4.61,4.61,0,0,1,.85-.4,55.85,55.85,0,0,1,6-1.86c1.9-.52,3.76-1,5.54-1.67,3.5-1.21,6.76-2.95,8.31-5.4a7.92,7.92,0,0,0,1.26-4,10,10,0,0,0-.81-4.36,20.43,20.43,0,0,0-5.71-7.42,36.26,36.26,0,0,0-7.5-4.93,46,46,0,0,0-13-4.26c-1-.14-1.78-.26-2.47-.33-.5-.07-1-.12-1.33-.14-.93-.08-1.43-.1-1.43-.1l.07-4h.45c.26,0,.57,0,1,0a38.32,38.32,0,0,1,4.28.17,45.4,45.4,0,0,1,14.69,3.9,39.43,39.43,0,0,1,8.78,5.43,24.67,24.67,0,0,1,7.4,9.52C284.36,165.37,284.55,170.79,281.63,175.05Z"/><path class="cls-2" d="M230,155.87l-.55.69a2.84,2.84,0,0,0-.26.36.9.9,0,0,1-.14.24,6,6,0,0,0-.52,1,16.62,16.62,0,0,0-1,2.81c-.14.54-.23,1.12-.33,1.71s-.17,1.19-.24,1.81a27.54,27.54,0,0,0-.07,3.62,19.61,19.61,0,0,0,.41,3.16c.11.45.19.88.31,1.24s.21.69.33.95.28.62.33.74c-.07-.1-.24-.33-.47-.67s-.31-.52-.53-.85-.36-.77-.57-1.22a19.77,19.77,0,0,1-1.07-3.14,28,28,0,0,1-.67-3.81,18.26,18.26,0,0,1-.14-2c0-.21,0-.4,0-.6,0-.45,0-.9,0-1.33a13.67,13.67,0,0,1,.17-1.85,15.28,15.28,0,0,1,.28-1.67c.1-.29.14-.53.22-.79s.14-.42.23-.66c.2-.45.39-1,.5-1.19l.43-.77Z"/><path class="cls-2" d="M226.58,159.08l-.21,1-.45,2s-.36-.08-1.07-.2l-1.31-.26-1.26-.21c-.46-.07-.91-.1-1.43-.15a24.58,24.58,0,0,0-3.4-.21c-.62,0-1.29,0-2,0s-1.38.09-2.12.14a39.86,39.86,0,0,0-4.47.62c-.78.12-1.52.38-2.31.55a17.51,17.51,0,0,0-2.35.71l-.71.24c-.55.21-1.08.38-1.6.59l-2.29,1c-.76.3-1.45.78-2.19,1.16l-.9.53h0a3.58,3.58,0,0,1-.33-.27c-.12-.09-.24-.16-.36-.26-.6-.43-1.22-.86-1.83-1.26s-1.48-.95-2.27-1.38c.29-.19.62-.36.93-.55l1.19-.66,1.26-.62c.86-.36,1.67-.84,2.55-1.15.48-.16.93-.35,1.4-.52s.81-.31,1.22-.45c.88-.28,1.78-.52,2.66-.78a18.65,18.65,0,0,1,2.64-.6,24.62,24.62,0,0,1,2.6-.48,46.59,46.59,0,0,1,5-.35c.64,0,1.26-.05,1.88,0a2,2,0,0,1,.42,0l2.15.14a31.62,31.62,0,0,1,3.78.5c.57.1,1.12.17,1.57.26l1.24.31a5.46,5.46,0,0,0,.81.22C226,158.94,226.58,159.08,226.58,159.08Z"/><path class="cls-2" d="M191.93,122.47a4.78,4.78,0,0,1,2.2-1.21s-.58-1.12-1.51-2.64c-.46-.79-1-1.75-1.4-2.66s-.89-1.84-1.32-2.79q-1.26-2.83-2.36-5.77a93.08,93.08,0,0,1-3.64-12A73.25,73.25,0,0,1,182.11,83c0-.35,0-.71,0-1.06-.06-1.39,0-2.78,0-4.18-.27.28-.54.58-.8.87l-.4.47c-.2,1.28-.35,2.58-.44,3.88,0,.24,0,.49-.05.73A76.07,76.07,0,0,0,180.6,96a97.89,97.89,0,0,0,2.14,12.89q.73,3.19,1.68,6.34c.32,1,.66,2.1,1,3.15.11.36.25.73.37,1.08-.19.26-.39.51-.57.78-.61.83-1.17,1.65-1.69,2.51a47.06,47.06,0,0,0-2.81,5.23,58.75,58.75,0,0,0-3.83,11,70.46,70.46,0,0,0-1.8,11.39c0,.15,0,.29,0,.44-.07.82-.09,1.62-.13,2.43s0,1.9-.07,2.86c0,.48,0,1,0,1.45,1.32.22,2.65.49,4,.8,0-.71.06-1.4.12-2.1.08-.91.12-1.82.24-2.71.07-.65.13-1.31.24-2a4.45,4.45,0,0,1,.1-.72,65.13,65.13,0,0,1,2.34-10.48,54.54,54.54,0,0,1,4.15-9.74,40.45,40.45,0,0,1,2.77-4.41c.49-.71,1-1.39,1.55-2,.26-.32.55-.63.81-.94l.56-.57h0l.09-.09a.55.55,0,0,0,.11-.1Z"/><path class="cls-2" d="M224.87,60.69c-15.66-1.3-35.73,6.88-35.73,6.88,8.89-5.47,21.9-9,37.09-10.24"/><path class="cls-2" d="M224.37,205.57,217,186.74l-.67-.18L200,164.76l-16.64-7-5.63.36A49.88,49.88,0,0,1,205,177.29c-16.26-13.25-46-14.18-66.21,2.55,0,0,44.87-28,72.43,15.16-18.61-14.29-40.56-9.33-49.15-4.76,0,0,26.56-7.58,45.58,7.9-30.58-5.93-57,12-68.86,18.94l43.57-13L204,205.75l13.28.49,1.26.76,1.45,1.24Z"/><path class="cls-2" d="M174.68,56.52A87.14,87.14,0,0,1,193,51.23l10.87-1.71-.31-.86-2.43-3.14-8.48-8.08-16.48-3.61-3-2.06v-12l-.91-11.69-4.87,6.37c-4.25,3-11.71,8.88-14.35,15-3.77,8.71-11.07,40.49-15.07,47.08l-3,1.22c-4.78,6.54-13.45,15.2-27.59,25.23-22.6,16-57.68,42-65.14,57.17s-2.62,46.8,2.07,52c3.33,3.68,10.48,7.32,14.35,9.12a2,2,0,0,0-.48.53l5.29,4.83,26.27,5.06,9.16-2c18.72-1.18,34.32-23.37,57.37-26.79,0,0-18.44,1-35,10.9-15.53,9.24-29.66,12.17-43.49,8.84a91,91,0,0,0,57.59-28s-28.78,21.86-53.42,15.85c0,0,33.37-4.92,51.71-36.75,0,0-23.3,31.37-54.08,18-.57-.25,1.07-.27.7-.82l2.44.95,8.89-2.47s24.79-13.87,27.85-17l16.29-15.61C114.05,167.63,83.19,185,83.19,185s31.13-26.2,50.95-34.94c0,0-46.89,10.68-67,25.12,21.54-19.49,60.13-34.06,70.88-36.58,0,0-18.15-1.14-69.16,20.2,0,0,70.24-41.49,77.77-43.74,0,0-36.64,13.78-66.62,27.27C100,123,158.48,111.49,157.38,89.44c-.14-2.85-.79-9.32-3.81-14.81a63.36,63.36,0,0,1,28.07-9.21,74.94,74.94,0,0,0-18-.7c11.93-5.06,25.11-7.84,33-7.3A125,125,0,0,0,174.68,56.52Z"/><path class="cls-1" d="M144.91,56C148.63,40,166.77,16.77,172,14.84l1-6.75s-12.05,9-16.8,15.67-12.35,26.55-12.35,26.55Z"/><path class="cls-2" d="M228.22,215.48c-.35,0-.76,0-1.11,0-.57,0-1.14-.05-1.72-.05a4.26,4.26,0,0,1-.5,0l-2.33-1.48c-7.33-4.66-16.35-6.64-25.39-7a91.7,91.7,0,0,0-27.1,3.25,93.26,93.26,0,0,0-11.76,4l-1.17.5c-.62.26-1.23.57-1.83.86-.43.19-.83.38-1.21.57l-1.48.78-1.57.84c-.17.09-.31.19-.47.28-1.86,1.05-3.84,2.17-5.79,3.19a138.79,138.79,0,0,1-13.18,6.16,107.52,107.52,0,0,1-13.92,4.48,105,105,0,0,1-29.06,2.83c-2.43-.14-4.95-.24-7.23-.52L79.61,234l-.88-.1-.5,0-.48-.05c-1.23-.19-2.45-.33-3.66-.6a58.75,58.75,0,0,1-7.26-1.8,51.91,51.91,0,0,1-7-2.81,48.18,48.18,0,0,1-6.54-3.83c-.86-.6-1.66-1.22-2.47-1.88A35.44,35.44,0,0,1,48,220.36c-.16-.14-.33-.31-.52-.47s-.48-.5-.74-.74A35,35,0,0,1,44,216a1.27,1.27,0,0,1-.23-.28c-.22-.27-.48-.57-.69-.88l-.57-.81a39.3,39.3,0,0,1-3.84-6.57A49.89,49.89,0,0,1,34.47,193a61.41,61.41,0,0,1-.12-14.9c.12-1.21.28-2.45.5-3.69l.31-1.83.35-1.76a41.34,41.34,0,0,1,2.15-7.28,56.65,56.65,0,0,1,7.44-13c5.95-7.88,13.12-14.47,20.54-20.51s15.28-11.57,23.16-16.9,15.87-10.45,23.6-15.75c3.86-2.67,7.74-5.36,11.19-8.26a36.49,36.49,0,0,0,4.59-4.71,39.7,39.7,0,0,0,3.69-5.5c4.43-7.83,6.78-17,9.59-26s6-18.38,11.09-26.8A81.88,81.88,0,0,1,171.78,4.19L177,0l-1,6.64-.26,1.55-.22,1.62c-.14,1.07-.26,2.16-.38,3.21-.24,2.16-.36,4.33-.48,6.49s-.09,4.36,0,6.53c0,1.09.07,2.16.14,3.21.05.81.12,1.69.22,2.5,0,.26,0,.52.09.8l-3.4.46c0-.41-.12-.81-.19-1.17-.12-.71-.24-1.43-.33-2.17-.17-1.14-.31-2.26-.41-3.4-.21-2.26-.35-4.49-.43-6.76s-.07-4.54,0-6.8c0-.1,0-.19,0-.31a74.67,74.67,0,0,0-13.23,16.49c-4.69,7.88-7.83,16.61-10.52,25.61s-5.07,18.41-10,27.17A45.24,45.24,0,0,1,132.51,88a40.72,40.72,0,0,1-5.31,5.44c-3.8,3.22-7.68,5.93-11.58,8.67-7.86,5.42-15.83,10.54-23.61,15.85s-15.49,10.7-22.7,16.63-14,12.28-19.49,19.56a52.64,52.64,0,0,0-6.64,11.61,38.62,38.62,0,0,0-1.86,6.33L41,173.77l-.26,1.66c-.22,1.07-.31,2.22-.46,3.34-1,9,.1,18.15,3.93,26.1a35.79,35.79,0,0,0,5.85,8.85l.74.79a3.07,3.07,0,0,0,.34.38,42.32,42.32,0,0,0,3.9,3.55l1.64,1.19a38.6,38.6,0,0,0,3.9,2.45c.62.35,1.29.66,2,1a47,47,0,0,0,6.17,2.42,51.44,51.44,0,0,0,6.52,1.65c1.09.21,2.21.33,3.33.5l.43,0,.36.05.9.1L82,228c2.4.26,4.66.34,6.92.45a96.84,96.84,0,0,0,27.27-2.76,98.34,98.34,0,0,0,13.09-4.23,123.61,123.61,0,0,0,12.28-5.81,2.07,2.07,0,0,0,.24-.09c.79-.43,1.55-.83,2.31-1.27,1.26-.69,2.52-1.4,3.85-2.16l1.55-.88,1.67-.86c1.14-.57,2.21-1.09,3.37-1.59,2.15-1,4.36-1.83,6.55-2.62,1.4-.5,2.79-1,4.19-1.4,1-.31,2-.6,3.09-.88a97.67,97.67,0,0,1,29.08-3.6,71.42,71.42,0,0,1,14.73,2,62.56,62.56,0,0,1,7.19,2.41,1.68,1.68,0,0,1,.38.19c-.55-2.14-1.14-4.24-1.81-6.31a79.38,79.38,0,0,0-5.14-12.28,68.52,68.52,0,0,0-7.21-11,50.9,50.9,0,0,0-9-8.7h0a3.58,3.58,0,0,1-.33-.27c-.12-.09-.24-.16-.36-.26-.6-.43-1.22-.86-1.83-1.26s-1.48-.95-2.27-1.38a47.88,47.88,0,0,0-12.9-5.09c-1.3-.31-2.64-.57-4-.81-.9-.14-1.78-.29-2.68-.38l-3.46-.38-3.23-.19c-1.12-.05-2.21-.05-3.31-.05s-2.21.07-3.33.12A54.75,54.75,0,0,0,146,159a58.9,58.9,0,0,0-12.16,5.26,105.11,105.11,0,0,0-11.19,7.56c-3.64,2.76-7.21,5.69-10.9,8.57a87.63,87.63,0,0,1-11.82,7.92,48,48,0,0,1-6.62,3c-1.17.38-2.28.79-3.5,1.07l-1.69.41-1.83.33a35.36,35.36,0,0,1-7.26.53,31.91,31.91,0,0,1-7.16-1.05,35,35,0,0,1-12.73-6.31A39.44,39.44,0,0,1,49.63,176a44.55,44.55,0,0,0,10.25,9.13,36.12,36.12,0,0,0,12.5,5,33.22,33.22,0,0,0,13.18-.4l1.57-.41,1.67-.5c1-.28,2-.73,3.09-1.14a46.17,46.17,0,0,0,5.88-3,93.82,93.82,0,0,0,10.9-8c3.5-2.92,7-6,10.64-9A98.1,98.1,0,0,1,131,159.32a64.89,64.89,0,0,1,13.16-6.11,64,64,0,0,1,14.3-2.86c2.42-.21,4.83-.26,7.26-.26l3.68.14,3.5.31c.72.07,1.48.15,2.21.26a43.14,43.14,0,0,1,4.38.77,57.8,57.8,0,0,1,7.79,2.23,55.32,55.32,0,0,1,11.82,6.14c.41.26.81.55,1.19.83,1.15.82,2.22,1.65,3.27,2.53a60.58,60.58,0,0,1,7.44,7.59,67,67,0,0,1,8,12.21,83,83,0,0,1,5.47,13.4,67.9,67.9,0,0,1,1.93,7c.29,1.26.55,2.5.74,3.76a1.25,1.25,0,0,1,.07.23c.05.36.12.74.17,1.13.12.68.24,1.4.31,2.11Z"/><path class="cls-1" d="M140.24,75s-.28.65-.82,1.85-1.27,3-2.37,5.23a44.25,44.25,0,0,1-5,7.42,39,39,0,0,1-3.81,4c-1.46,1.31-3.06,2.5-4.7,3.85-3.31,2.61-7.1,5.31-11.07,8L100,114c-4.39,3-8.87,6-13.38,9.26s-9,6.6-13.4,10a148.63,148.63,0,0,0-12.67,10.83c-1.94,1.93-3.84,3.89-5.64,5.88s-3.51,4-4.94,6.19a45.64,45.64,0,0,0-6.76,13.24,55.47,55.47,0,0,0-1.46,6.76c-.15,1.11-.38,2.29-.46,3.26S41,181.66,41,182.7a52.76,52.76,0,0,0,.54,11.35,47.58,47.58,0,0,0,1,4.66c.46,1.39.77,2.73,1.26,3.85a40.13,40.13,0,0,0,2.42,5.15c.61,1.17.93,1.8.93,1.8l-1-1.73a36.41,36.41,0,0,1-2.72-5.05c-.56-1.11-.93-2.43-1.47-3.83a49.86,49.86,0,0,1-2.22-16.29c0-1.08.12-2.14.18-3.24s.25-2.24.37-3.39a53.8,53.8,0,0,1,1.32-7A44.07,44.07,0,0,1,48.23,155c1.48-2.26,3.34-4.24,5-6.42S57,144.56,59,142.56a149,149,0,0,1,12.75-11.11c4.51-3.43,9-6.92,13.6-10s9.08-6.24,13.48-9.14L111.52,104c4.07-2.64,7.81-5.15,11.22-7.67,1.66-1.28,3.33-2.48,4.78-3.67a38.59,38.59,0,0,0,3.89-3.74,44.41,44.41,0,0,0,5.25-7.07Z"/><path class="cls-2" d="M262.34,160.58c0,1.42-1.74,2.57-3.89,2.57s-3.9-1.15-3.9-2.57,1.75-2.56,3.9-2.56S262.34,159.17,262.34,160.58Z"/><path class="cls-2" d="M248.51,204.51l4.9-1.49-.25-8.53,1.79-11-5.66,4.47-3,7s-.24,6.2,0,6.35S248.51,204.51,248.51,204.51Z"/><path class="cls-2" d="M260.9,182c-1,.09-2,.19-2.95.24-1.74.09-3.38.12-4.9.07-.77,0-1.5-.07-2.22-.12-.4,0-.81-.07-1.21-.12A27.05,27.05,0,0,1,238,178.46a8.42,8.42,0,0,1-.91-.6c-.28-.19-.52-.38-.78-.57l-1-.81-.37-.38a11.78,11.78,0,0,1-2.6-3.52,8.52,8.52,0,0,0,3.07,3l.59.36c.27.14.53.29.82.43a20,20,0,0,0,2.42,1.09,39.63,39.63,0,0,0,17.63,2.34c9.69-1.12,31.16-8.33,14.36-24l2.4-.4,6,6.57-.83,11.59S285.5,179.46,260.9,182Z"/><path class="cls-2" d="M254.49,181.88c-10.4,12.64-12.07,24.84-12.19,29.6s9.48,3.87,9.48,3.87l6.67-4.32-2.23-3.2-2.48-1.78-.49-10.63L257,184.56l1.43-3.05Z"/><path class="cls-2" d="M188.17,118.05a63.56,63.56,0,0,0-7.69,5.29c-6.23,6.14-3.67,15.2-3.67,15.2a30.28,30.28,0,0,1-2.16-8.76c-2.8,7-3.82,12-3.88,16a55.81,55.81,0,0,1-.72-12.2,84.44,84.44,0,0,0-12.37,19.34l17.75,1.69,3-7.44,11.11-26.87Z"/><path class="cls-2" d="M232.39,172.58c6.3,14.82,17.06,15.49,21.07,16.11l3.13-6-4.09-1.2S235.41,179.32,232.39,172.58Z"/><path class="cls-2" d="M248.74,146.57c-.24-.64-.53-1.26-.83-1.88a24.48,24.48,0,0,0-1.41-2.33,5.46,5.46,0,0,0-.47-.77,24.33,24.33,0,0,0-2.29-2.78,34.62,34.62,0,0,0-2.59-2.55c-.86-.85-1.81-1.61-2.76-2.4s-2-1.5-2.93-2.26-2.09-1.33-3.14-2-2.17-1.21-3.28-1.73-2.24-1.1-3.41-1.5-2.28-.91-3.45-1.24-2.33-.76-3.5-1.05l-3.54-.83c-1.17-.21-2.36-.45-3.55-.67s-2.35-.33-3.54-.5c-2.36-.33-4.74-.45-7.1-.59l-3.61-.24.66,3.29v0a28.19,28.19,0,0,0,.77,3.83,32,32,0,0,0,1,3.24h0c4.53,11,15.24,20.49,15.24,20.49s-12.37-9.77-16.46-20.33c-1,.12-1.92.23-2.91.38l-3.44.48,1.36,3.2c.38.91,9.66,22.22,33.2,24.26l.3-3.56c.72.14,1.44.27,2.16.34.48.07,1,.12,1.43.17a32.83,32.83,0,0,0,3.71.09c1.24,0,2.45-.19,3.67-.33s2.4-.48,3.59-.79c-1.21-.31-2.38-.54-3.55-.78s.14-.89.14-.89l-2.53-2.48,4.37,1.45a37.45,37.45,0,0,0-4.17-5.23L234.68,147l-.68-.73c-6.88-6.5-16.57-11.93-25.71-13.71,4.58,11,17.92,20.24,17.92,20.24-6.06-2.45-15.25-9.59-19.88-20.61h0l-.07-.16-.15-.26h0c-.28-.6-.57-1.2-.81-1.81-.31-.81-.6-1.59-.88-2.4.9.14,1.81.33,2.69.5,1.09.24,2.23.4,3.33.66s2.21.48,3.31.72l3.26.85c1.07.29,2.12.65,3.19.93s2.09.74,3.14,1.1,2,.83,3,1.21,2,.95,3,1.41,1.9,1.07,2.85,1.61,1.88,1.15,2.77,1.79,1.8,1.26,2.66,2,1.74,1.43,2.62,2.17,1.76,1.43,2.69,2.09a34.22,34.22,0,0,0,2.95,1.95,23.56,23.56,0,0,0,3.38,1.65C249.12,147.62,249,147.09,248.74,146.57Z"/><path class="cls-2" d="M335,228.08s-2.92-2.77-9.89-4.75v0c-.26,0-1.4-.36-3.4-.86l-2.57-.64c-2-.47-4.38-1.07-7.16-1.71-3.62-.93-7.88-1.76-12.83-2.76l-5.4-1.07c-2.14-.43-4.38-.86-6.69-1.24l-10.52-1.71c-5.35-1-11-1.67-17-2.43l-1.49-.19-1-.12-4.46-.57c-2.64-.31-5.35-.6-8.09-.88-1.64-.17-3.28-.33-5-.52-4.61-.48-8.49-.84-12.4-1.13h0l-6.55-.47c-2.92-.19-5.9-.38-8.9-.59-4.33-.27-8.75-.43-13.06-.63l-1.76,0c-2.33-.12-4.71-.21-7.07-.31-2,0-4-.07-6-.12l-16.42-.21h-.59l-.29.09c-1.38.4-2.73.88-4.12,1.36-2.38.86-4.52,1.71-6.47,2.59-1.12.5-2.19,1-3.36,1.6l-1.66.88-2.52,1.4-2.69,1.52.93,3.53,3.88,0,9.87-.07,6.69-.07h.4l14.71.14h.86c2.16,0,4.3,0,6.42.05l7.28.17,14.35.33,13.54.5c.19,0,.38,0,.53,0h0c.52,0,1.07,0,1.62,0,.33,0,.69,0,1,.05h.19c2.26.1,4.48.22,6.67.33,1.35.08,7.23.36,8.85.43,2.76.15,5.47.26,8.11.43,2.81.22,12.31.88,12.31.88l5.85.38,5.62.48c2.73.26,5.42.47,8,.69,4.29.36,8.33.69,12,1.09,2.6.29,5,.53,7.33.74,3,.26,5.74.52,8.17.86,2.71.33,5.07.59,7,.81l3,.31,2.33.24Z"/><path class="cls-2" d="M56.66,219.64c-.55-.4-1.09-.79-1.62-1.21a40.93,40.93,0,0,1-3.92-3.54l-.34-.37-2.84.46c-1.41.25-2.79.5-4.14.78-.81.13-1.6.3-2.38.45-1,.21-2,.42-3,.6l-1.94.38c-5.18,1-9.66,1.92-13.41,2.86-2.79.64-5.16,1.25-7.12,1.72l-2.69.67c-2.26.57-3.45.89-3.45.89v0c-6.91,2-9.81,4.72-9.81,4.72L10.46,227h0l3.56-.37,2.13-.23c2.11-.23,4.76-.51,7.87-.89,2.45-.33,5.27-.6,8.27-.86,2.26-.21,4.67-.44,7.21-.72,3.49-.39,7.29-.7,11.32-1l.27,0,2.82-.24c1.84-.14,3.73-.29,5.67-.48l1-.09A39.39,39.39,0,0,1,56.66,219.64Z"/><path class="cls-1" d="M238.85,158.33s-5-3-8.14-3c0,0,6-.82,7.48-1a15.69,15.69,0,0,1-3-4.24s3.72,2.71,6.58,2,1.78,5.31,1.78,5.31Z"/><path class="cls-2" d="M204.83,166.65c9.27-2.69,20.92-1.9,20.92-1.9l.32-3.78s-9.39-2.35-15.69-1.48a57.5,57.5,0,0,0-9.37,1.9Z"/><path class="cls-2" d="M248.52,189.73c-2.31,12.7-13.43,23.55-17.81,6.75s-24-30.89-24-30.89l6.78,19.24,6.71,26.67,17,2.38h10.89Z"/><path class="cls-2" d="M204.79,170s5.68-3.27,11.22-3.55a80.2,80.2,0,0,0-10.1-.35"/></g></g></svg>